<svg width="0" height="0" class="hidden">
    <symbol fill="none" xmlns="http://www.w3.org/2000/svg" viewBox="0 0 32 33" id="youtube">
        <g clip-path="url(#clip0_675_979)">
            <path opacity="0.2"
                d="M28.3237 9.44124C28.2468 9.1329 28.0974 8.84734 27.8881 8.60822C27.6788 8.3691 27.4155 8.18331 27.12 8.06624C22.935 6.45624 16 6.49999 16 6.49999C16 6.49999 9.065 6.45624 4.875 8.07249C4.57954 8.18956 4.31623 8.37535 4.1069 8.61447C3.89756 8.85359 3.74822 9.13915 3.67125 9.44749C3.38375 10.5675 3 12.7612 3 16.5C3 20.2387 3.38375 22.4325 3.67625 23.5587C3.7536 23.8654 3.90258 24.1494 4.11096 24.3873C4.31935 24.6253 4.58119 24.8104 4.875 24.9275C9.065 26.5437 16 26.5 16 26.5C16 26.5 22.935 26.5437 27.125 24.9275C27.4197 24.811 27.6826 24.6262 27.8919 24.3882C28.1012 24.1502 28.2509 23.8659 28.3288 23.5587C28.6213 22.4337 29.005 20.2387 29.005 16.5C29.005 12.7612 28.6162 10.5675 28.3237 9.44124ZM14 20.5V12.5L20 16.5L14 20.5Z"
                fill="#2D746D"></path>
            <path
                d="M20.555 15.6675L14.555 11.6675C14.4044 11.567 14.2293 11.5093 14.0484 11.5005C13.8675 11.4918 13.6877 11.5323 13.528 11.6177C13.3684 11.7032 13.2349 11.8304 13.1419 11.9858C13.0489 12.1412 12.9999 12.3189 13 12.5V20.5C12.9999 20.6811 13.0489 20.8588 13.1419 21.0142C13.2349 21.1696 13.3684 21.2968 13.528 21.3823C13.6877 21.4677 13.8675 21.5082 14.0484 21.4995C14.2293 21.4907 14.4044 21.433 14.555 21.3325L20.555 17.3325C20.6922 17.2412 20.8047 17.1175 20.8825 16.9722C20.9603 16.827 21.001 16.6648 21.001 16.5C21.001 16.3352 20.9603 16.173 20.8825 16.0278C20.8047 15.8826 20.6922 15.7588 20.555 15.6675ZM15 18.6313V14.375L18.1975 16.5L15 18.6313ZM29.2913 9.19C29.1735 8.72919 28.9478 8.30298 28.6329 7.94654C28.318 7.59011 27.9228 7.31366 27.48 7.14C23.195 5.485 16.375 5.5 16 5.5C15.625 5.5 8.805 5.485 4.52 7.14C4.0772 7.31366 3.68204 7.59011 3.36712 7.94654C3.05219 8.30298 2.82653 8.72919 2.70875 9.19C2.385 10.4375 2 12.7175 2 16.5C2 20.2825 2.385 22.5625 2.70875 23.81C2.82636 24.271 3.05194 24.6975 3.36687 25.0542C3.68181 25.4108 4.07706 25.6875 4.52 25.8613C8.625 27.445 15.05 27.5 15.9175 27.5H16.0825C16.95 27.5 23.3787 27.445 27.48 25.8613C27.9229 25.6875 28.3182 25.4108 28.6331 25.0542C28.9481 24.6975 29.1736 24.271 29.2913 23.81C29.615 22.56 30 20.2825 30 16.5C30 12.7175 29.615 10.4375 29.2913 9.19ZM27.355 23.315C27.3169 23.4684 27.243 23.6105 27.1394 23.7298C27.0357 23.8491 26.9053 23.9421 26.7588 24.0013C22.8025 25.5288 16.0737 25.5013 15.9937 25.5013C15.9137 25.5013 9.1975 25.5238 5.24375 24.0013C5.09721 23.9421 4.96678 23.8491 4.86313 23.7298C4.75949 23.6105 4.6856 23.4684 4.6475 23.315C4.35 22.1738 4 20.0713 4 16.5C4 12.9288 4.35 10.8263 4.645 9.69125C4.68239 9.53698 4.75596 9.39382 4.85965 9.27362C4.96333 9.15342 5.09413 9.05963 5.24125 9C9.1975 7.4775 15.925 7.5 16.0063 7.5C16.0875 7.5 22.8025 7.4775 26.7563 9C26.9028 9.05915 27.0332 9.15217 27.1369 9.27146C27.2405 9.39074 27.3144 9.53289 27.3525 9.68625C27.65 10.8263 28 12.9288 28 16.5C28 20.0713 27.65 22.1738 27.355 23.3088V23.315Z"
                fill="#2D746D"></path>
        </g>
        <defs>
            <clipPath id="clip0_675_979">
                <rect width="32" height="32" fill="white" transform="translate(0 0.5)"></rect>
            </clipPath>
        </defs>
    </symbol>
    <symbol fill="none" xmlns="http://www.w3.org/2000/svg" viewBox="0 0 32 33" id="instagram">
        <g clip-path="url(#clip0_675_972)">
            <path opacity="0.2"
                d="M22 4.5H10C8.4087 4.5 6.88258 5.13214 5.75736 6.25736C4.63214 7.38258 4 8.9087 4 10.5V22.5C4 24.0913 4.63214 25.6174 5.75736 26.7426C6.88258 27.8679 8.4087 28.5 10 28.5H22C23.5913 28.5 25.1174 27.8679 26.2426 26.7426C27.3679 25.6174 28 24.0913 28 22.5V10.5C28 8.9087 27.3679 7.38258 26.2426 6.25736C25.1174 5.13214 23.5913 4.5 22 4.5ZM16 21.5C15.0111 21.5 14.0444 21.2068 13.2221 20.6573C12.3999 20.1079 11.759 19.327 11.3806 18.4134C11.0022 17.4998 10.9031 16.4945 11.0961 15.5245C11.289 14.5546 11.7652 13.6637 12.4645 12.9645C13.1637 12.2652 14.0546 11.789 15.0245 11.5961C15.9945 11.4031 16.9998 11.5022 17.9134 11.8806C18.827 12.259 19.6079 12.8999 20.1573 13.7221C20.7068 14.5444 21 15.5111 21 16.5C21 17.8261 20.4732 19.0979 19.5355 20.0355C18.5979 20.9732 17.3261 21.5 16 21.5Z"
                fill="#2D746D"></path>
            <path
                d="M22 3.5H10C8.14409 3.50199 6.36477 4.24012 5.05245 5.55245C3.74012 6.86477 3.00199 8.64409 3 10.5V22.5C3.00199 24.3559 3.74012 26.1352 5.05245 27.4476C6.36477 28.7599 8.14409 29.498 10 29.5H22C23.8559 29.498 25.6352 28.7599 26.9476 27.4476C28.2599 26.1352 28.998 24.3559 29 22.5V10.5C28.998 8.64409 28.2599 6.86477 26.9476 5.55245C25.6352 4.24012 23.8559 3.50199 22 3.5ZM27 22.5C27 23.8261 26.4732 25.0979 25.5355 26.0355C24.5979 26.9732 23.3261 27.5 22 27.5H10C8.67392 27.5 7.40215 26.9732 6.46447 26.0355C5.52678 25.0979 5 23.8261 5 22.5V10.5C5 9.17392 5.52678 7.90215 6.46447 6.96447C7.40215 6.02678 8.67392 5.5 10 5.5H22C23.3261 5.5 24.5979 6.02678 25.5355 6.96447C26.4732 7.90215 27 9.17392 27 10.5V22.5ZM16 10.5C14.8133 10.5 13.6533 10.8519 12.6666 11.5112C11.6799 12.1705 10.9108 13.1075 10.4567 14.2039C10.0026 15.3003 9.88378 16.5067 10.1153 17.6705C10.3468 18.8344 10.9182 19.9035 11.7574 20.7426C12.5965 21.5818 13.6656 22.1532 14.8295 22.3847C15.9933 22.6162 17.1997 22.4974 18.2961 22.0433C19.3925 21.5892 20.3295 20.8201 20.9888 19.8334C21.6481 18.8467 22 17.6867 22 16.5C21.9983 14.9092 21.3657 13.384 20.2408 12.2592C19.116 11.1343 17.5908 10.5017 16 10.5ZM16 20.5C15.2089 20.5 14.4355 20.2654 13.7777 19.8259C13.1199 19.3864 12.6072 18.7616 12.3045 18.0307C12.0017 17.2998 11.9225 16.4956 12.0769 15.7196C12.2312 14.9437 12.6122 14.231 13.1716 13.6716C13.731 13.1122 14.4437 12.7312 15.2196 12.5769C15.9956 12.4225 16.7998 12.5017 17.5307 12.8045C18.2616 13.1072 18.8864 13.6199 19.3259 14.2777C19.7654 14.9355 20 15.7089 20 16.5C20 17.5609 19.5786 18.5783 18.8284 19.3284C18.0783 20.0786 17.0609 20.5 16 20.5ZM24 10C24 10.2967 23.912 10.5867 23.7472 10.8334C23.5824 11.08 23.3481 11.2723 23.074 11.3858C22.7999 11.4994 22.4983 11.5291 22.2074 11.4712C21.9164 11.4133 21.6491 11.2704 21.4393 11.0607C21.2296 10.8509 21.0867 10.5836 21.0288 10.2926C20.9709 10.0017 21.0007 9.70006 21.1142 9.42597C21.2277 9.15189 21.42 8.91762 21.6666 8.7528C21.9133 8.58797 22.2033 8.5 22.5 8.5C22.8978 8.5 23.2794 8.65804 23.5607 8.93934C23.842 9.22064 24 9.60218 24 10Z"
                fill="#2D746D"></path>
        </g>
        <defs>
            <clipPath id="clip0_675_972">
                <rect width="32" height="32" fill="white" transform="translate(0 0.5)"></rect>
            </clipPath>
        </defs>
    </symbol>
    <symbol fill="none" xmlns="http://www.w3.org/2000/svg" viewBox="0 0 32 33" id="twitter">
        <g clip-path="url(#clip0_675_965)">
            <path opacity="0.2"
                d="M30 9.5L26 13.5C25.4675 21.855 18.49 28.5 10 28.5C6 28.5 5 27 5 27C5 27 9 25.5 11 22.5C11 22.5 4.10625 18.5 5.0975 7.5C5.0975 7.5 10.055 12.5 16 13.5V11.5C16 8.75 18.25 6.46625 21 6.5C21.9705 6.51127 22.9175 6.79964 23.7296 7.33114C24.5417 7.86264 25.185 8.61514 25.5837 9.5H30Z"
                fill="#2D746D"></path>
            <path
                d="M30.9237 9.11753C30.8481 8.93479 30.7199 8.77858 30.5555 8.66867C30.3911 8.55876 30.1978 8.50007 30 8.50003H26.1962C25.6645 7.59517 24.9077 6.84332 23.9993 6.31762C23.0909 5.79192 22.062 5.51026 21.0125 5.50003C20.2308 5.48966 19.4549 5.63583 18.7306 5.92994C18.0063 6.22405 17.3482 6.66014 16.795 7.21253C16.2249 7.77132 15.7724 8.43853 15.4642 9.17487C15.1559 9.9112 14.9981 10.7018 15 11.5V12.2613C9.96749 10.9338 5.85124 6.84003 5.80749 6.79628C5.67332 6.66093 5.50328 6.56673 5.31738 6.52479C5.13148 6.48284 4.93747 6.49488 4.75818 6.5595C4.5789 6.62413 4.42181 6.73863 4.30543 6.88953C4.18904 7.04044 4.11819 7.22146 4.10124 7.41128C3.56374 13.385 5.29749 17.3825 6.85124 19.6838C7.6092 20.8215 8.53126 21.8409 9.58748 22.7088C7.67873 24.9 4.68124 26.0513 4.64999 26.0638C4.50888 26.1166 4.38154 26.2007 4.27748 26.3097C4.17342 26.4186 4.09534 26.5497 4.04906 26.6931C4.00278 26.8365 3.98951 26.9885 4.01023 27.1378C4.03096 27.287 4.08514 27.4297 4.16874 27.555C4.26124 27.695 4.63749 28.1863 5.55374 28.645C6.68874 29.2125 8.18499 29.5 9.99999 29.5C18.835 29.5 26.215 22.6975 26.97 13.945L30.7075 10.2075C30.8473 10.0676 30.9425 9.88935 30.981 9.69533C31.0194 9.50131 30.9995 9.30023 30.9237 9.11753ZM25.2987 12.7938C25.1273 12.9656 25.0242 13.194 25.0087 13.4363C24.5 21.3225 17.91 27.5 9.99999 27.5C8.67999 27.5 7.74998 27.325 7.09749 27.115C8.53749 26.3338 10.5425 24.99 11.8325 23.055C11.908 22.9417 11.9597 22.8142 11.9842 22.6802C12.0087 22.5462 12.0056 22.4087 11.975 22.2759C11.9445 22.1432 11.8871 22.0181 11.8065 21.9083C11.7259 21.7986 11.6237 21.7064 11.5062 21.6375C11.49 21.6275 9.89874 20.67 8.44624 18.4763C6.81749 16.0138 5.99999 13.0475 5.99999 9.63628C7.99999 11.2613 11.6562 13.7838 15.8362 14.4863C15.9794 14.51 16.1261 14.5024 16.266 14.4637C16.4059 14.4251 16.5358 14.3565 16.6465 14.2627C16.7573 14.1688 16.8462 14.052 16.9073 13.9203C16.9683 13.7886 16.9999 13.6452 17 13.5V11.5C16.9989 10.9666 17.1044 10.4383 17.3105 9.94629C17.5166 9.45427 17.819 9.00843 18.2 8.63503C18.565 8.26886 18.9998 7.97972 19.4786 7.78475C19.9574 7.58978 20.4705 7.49296 20.9875 7.50003C22.57 7.52003 24.0487 8.48503 24.6675 9.90128C24.7455 10.0793 24.8737 10.2308 25.0364 10.3371C25.1991 10.4435 25.3893 10.5001 25.5837 10.5H27.5837L25.2987 12.7938Z"
                fill="#2D746D"></path>
        </g>
        <defs>
            <clipPath id="clip0_675_965">
                <rect width="32" height="32" fill="white" transform="translate(0 0.5)"></rect>
            </clipPath>
        </defs>
    </symbol>
    <symbol fill="none" xmlns="http://www.w3.org/2000/svg" viewBox="0 0 32 33" id="facebook">
        <path opacity="0.2"
            d="M28 16.5C28 18.8734 27.2962 21.1935 25.9776 23.1668C24.6591 25.1402 22.7849 26.6783 20.5922 27.5866C18.3995 28.4948 15.9867 28.7324 13.6589 28.2694C11.3312 27.8064 9.19295 26.6635 7.51472 24.9853C5.83649 23.3071 4.6936 21.1689 4.23058 18.8411C3.76756 16.5133 4.0052 14.1005 4.91345 11.9078C5.8217 9.71509 7.35977 7.84094 9.33316 6.52236C11.3066 5.20379 13.6266 4.5 16 4.5C19.1826 4.5 22.2348 5.76428 24.4853 8.01472C26.7357 10.2652 28 13.3174 28 16.5Z"
            fill="#2D746D"></path>
        <path
            d="M16 3.5C13.4288 3.5 10.9154 4.26244 8.77759 5.6909C6.63975 7.11935 4.97351 9.14968 3.98957 11.5251C3.00563 13.9006 2.74819 16.5144 3.2498 19.0362C3.75141 21.5579 4.98953 23.8743 6.80762 25.6924C8.6257 27.5105 10.9421 28.7486 13.4638 29.2502C15.9856 29.7518 18.5995 29.4944 20.9749 28.5104C23.3503 27.5265 25.3807 25.8603 26.8091 23.7224C28.2376 21.5846 29 19.0712 29 16.5C28.9964 13.0533 27.6256 9.74882 25.1884 7.31163C22.7512 4.87445 19.4467 3.50364 16 3.5ZM17 27.4538V19.5H20C20.2652 19.5 20.5196 19.3946 20.7071 19.2071C20.8946 19.0196 21 18.7652 21 18.5C21 18.2348 20.8946 17.9804 20.7071 17.7929C20.5196 17.6054 20.2652 17.5 20 17.5H17V14.5C17 13.9696 17.2107 13.4609 17.5858 13.0858C17.9609 12.7107 18.4696 12.5 19 12.5H21C21.2652 12.5 21.5196 12.3946 21.7071 12.2071C21.8946 12.0196 22 11.7652 22 11.5C22 11.2348 21.8946 10.9804 21.7071 10.7929C21.5196 10.6054 21.2652 10.5 21 10.5H19C17.9391 10.5 16.9217 10.9214 16.1716 11.6716C15.4214 12.4217 15 13.4391 15 14.5V17.5H12C11.7348 17.5 11.4804 17.6054 11.2929 17.7929C11.1054 17.9804 11 18.2348 11 18.5C11 18.7652 11.1054 19.0196 11.2929 19.2071C11.4804 19.3946 11.7348 19.5 12 19.5H15V27.4538C12.181 27.1964 9.56971 25.8622 7.7093 23.7287C5.8489 21.5952 4.8826 18.8266 5.0114 15.9988C5.1402 13.171 6.35419 10.5017 8.40085 8.54613C10.4475 6.59057 13.1693 5.4993 16 5.4993C18.8307 5.4993 21.5525 6.59057 23.5992 8.54613C25.6458 10.5017 26.8598 13.171 26.9886 15.9988C27.1174 18.8266 26.1511 21.5952 24.2907 23.7287C22.4303 25.8622 19.819 27.1964 17 27.4538Z"
            fill="#2D746D"></path>
    </symbol>
</svg>