<svg aria-hidden="true" style="position: absolute; width: 0; height: 0; overflow: hidden;"
    version="1.1" xmlns="http://www.w3.org/2000/svg" xmlns:xlink="http://www.w3.org/1999/xlink">
    <defs>
        <symbol fill="none" xmlns="http://www.w3.org/2000/svg" viewBox="0 0 32 32" id="irrigation">
            <path opacity="0.2"
                d="M9 14V18C9 18.2652 8.89464 18.5196 8.70711 18.7071C8.51957 18.8946 8.26522 19 8 19H4C3.73478 19 3.48043 18.8946 3.29289 18.7071C3.10536 18.5196 3 18.2652 3 18V14C3 13.7348 3.10536 13.4804 3.29289 13.2929C3.48043 13.1054 3.73478 13 4 13H8C8.26522 13 8.51957 13.1054 8.70711 13.2929C8.89464 13.4804 9 13.7348 9 14ZM27 5H21C20.7348 5 20.4804 5.10536 20.2929 5.29289C20.1054 5.48043 20 5.73478 20 6V12C20 12.2652 20.1054 12.5196 20.2929 12.7071C20.4804 12.8946 20.7348 13 21 13H27C27.2652 13 27.5196 12.8946 27.7071 12.7071C27.8946 12.5196 28 12.2652 28 12V6C28 5.73478 27.8946 5.48043 27.7071 5.29289C27.5196 5.10536 27.2652 5 27 5ZM27 19H21C20.7348 19 20.4804 19.1054 20.2929 19.2929C20.1054 19.4804 20 19.7348 20 20V26C20 26.2652 20.1054 26.5196 20.2929 26.7071C20.4804 26.8946 20.7348 27 21 27H27C27.2652 27 27.5196 26.8946 27.7071 26.7071C27.8946 26.5196 28 26.2652 28 26V20C28 19.7348 27.8946 19.4804 27.7071 19.2929C27.5196 19.1054 27.2652 19 27 19Z"
                fill="#2D746D"></path>
            <path
                d="M21 14H27C27.5304 14 28.0391 13.7893 28.4142 13.4142C28.7893 13.0391 29 12.5304 29 12V6C29 5.46957 28.7893 4.96086 28.4142 4.58579C28.0391 4.21071 27.5304 4 27 4H21C20.4696 4 19.9609 4.21071 19.5858 4.58579C19.2107 4.96086 19 5.46957 19 6V8H18C16.9391 8 15.9217 8.42143 15.1716 9.17157C14.4214 9.92172 14 10.9391 14 12V15H10V14C10 13.4696 9.78929 12.9609 9.41421 12.5858C9.03914 12.2107 8.53043 12 8 12H4C3.46957 12 2.96086 12.2107 2.58579 12.5858C2.21071 12.9609 2 13.4696 2 14V18C2 18.5304 2.21071 19.0391 2.58579 19.4142C2.96086 19.7893 3.46957 20 4 20H8C8.53043 20 9.03914 19.7893 9.41421 19.4142C9.78929 19.0391 10 18.5304 10 18V17H14V20C14 21.0609 14.4214 22.0783 15.1716 22.8284C15.9217 23.5786 16.9391 24 18 24H19V26C19 26.5304 19.2107 27.0391 19.5858 27.4142C19.9609 27.7893 20.4696 28 21 28H27C27.5304 28 28.0391 27.7893 28.4142 27.4142C28.7893 27.0391 29 26.5304 29 26V20C29 19.4696 28.7893 18.9609 28.4142 18.5858C28.0391 18.2107 27.5304 18 27 18H21C20.4696 18 19.9609 18.2107 19.5858 18.5858C19.2107 18.9609 19 19.4696 19 20V22H18C17.4696 22 16.9609 21.7893 16.5858 21.4142C16.2107 21.0391 16 20.5304 16 20V12C16 11.4696 16.2107 10.9609 16.5858 10.5858C16.9609 10.2107 17.4696 10 18 10H19V12C19 12.5304 19.2107 13.0391 19.5858 13.4142C19.9609 13.7893 20.4696 14 21 14ZM8 18H4V14H8V18ZM21 20H27V26H21V20ZM21 6H27V12H21V6Z"
                fill="#2D746D"></path>
        </symbol>
        <symbol fill="none" xmlns="http://www.w3.org/2000/svg" viewBox="0 0 32 32" id="plant">
            <path opacity="0.2"
                d="M17.3175 17.6825C13.3275 11.0313 18.6475 4.3813 29.9537 5.0463C30.625 16.3525 23.9687 21.6738 17.3175 17.6825ZM2.0325 10.0325C1.5575 18.1088 6.30875 21.9075 11.0587 19.0588C13.9087 14.3088 10.1087 9.55755 2.0325 10.0325Z"
                fill="#2D746D"></path>
            <path
                d="M30.9538 4.9862C30.9395 4.74156 30.8358 4.51068 30.6626 4.3374C30.4893 4.16411 30.2584 4.06049 30.0138 4.0462C23.5438 3.6712 18.3487 5.6387 16.1162 9.3237C14.6412 11.7587 14.6437 14.7187 16.0962 17.5412C15.2704 18.5236 14.6662 19.6727 14.325 20.91L12.2912 18.875C13.2687 16.8337 13.2312 14.705 12.1662 12.9387C10.5112 10.2162 6.7025 8.74995 1.97375 9.0337C1.72911 9.04799 1.49823 9.15161 1.32494 9.3249C1.15166 9.49818 1.04804 9.72906 1.03375 9.9737C0.754999 14.7025 2.21625 18.5112 4.94 20.1612C5.84041 20.7108 6.87511 21.0011 7.93 21C8.95237 20.9874 9.95884 20.7451 10.875 20.2912L14 23.4162V27C14 27.2652 14.1054 27.5195 14.2929 27.7071C14.4804 27.8946 14.7348 28 15 28C15.2652 28 15.5196 27.8946 15.7071 27.7071C15.8946 27.5195 16 27.2652 16 27V23.3137C15.9955 21.7228 16.5369 20.1786 17.5338 18.9387C18.8199 19.6109 20.2464 19.9706 21.6975 19.9887C23.1005 19.9932 24.4774 19.61 25.6763 18.8812C29.3612 16.6512 31.3337 11.4562 30.9538 4.9862ZM10.7575 17.3425L7.70625 14.2925C7.51719 14.1128 7.26544 14.0142 7.00468 14.0175C6.74391 14.0209 6.49477 14.1259 6.31037 14.3103C6.12597 14.4947 6.0209 14.7439 6.01756 15.0046C6.01422 15.2654 6.11288 15.5171 6.2925 15.7062L9.34375 18.7575C8.1425 19.155 6.9775 19.0562 5.97625 18.45C4.05875 17.2887 2.97375 14.54 3 11C6.53875 10.9687 9.28875 12.0587 10.45 13.9762C11.0562 14.9775 11.155 16.1425 10.7575 17.3425ZM24.64 17.1725C22.965 18.1862 20.9963 18.2637 18.9963 17.4225L25.7075 10.71C25.8951 10.5225 26.0006 10.2681 26.0007 10.0029C26.0009 9.73765 25.8956 9.48322 25.7081 9.29558C25.5206 9.10794 25.2663 9.00246 25.0011 9.00234C24.7358 9.00222 24.4814 9.10748 24.2938 9.29495L17.5812 16C16.7362 14 16.8125 12.03 17.8312 10.3562C19.5737 7.4812 23.7062 5.8812 28.9975 6.00245C29.1175 11.2925 27.5175 15.43 24.64 17.1725Z"
                fill="#2D746D"></path>
        </symbol>
        <symbol fill="none" xmlns="http://www.w3.org/2000/svg" viewBox="0 0 26 22" id="landscape">
            <path opacity="0.2"
                d="M25 2V17.2575L20.035 12.2925C19.8475 12.1051 19.5932 11.9998 19.3281 11.9998C19.063 11.9998 18.8088 12.1051 18.6213 12.2925L15.4137 15.5L9.2075 9.2925C9.11463 9.19952 9.00434 9.12576 8.88294 9.07544C8.76154 9.02512 8.63142 8.99921 8.5 8.99921C8.36858 8.99921 8.23846 9.02512 8.11706 9.07544C7.99566 9.12576 7.88537 9.19952 7.7925 9.2925L1 16.0863V2C1 1.73478 1.10536 1.48043 1.29289 1.29289C1.48043 1.10536 1.73478 1 2 1H24C24.2652 1 24.5196 1.10536 24.7071 1.29289C24.8946 1.48043 25 1.73478 25 2Z"
                fill="#2D746D"></path>
            <path
                d="M24 0H2C1.46957 0 0.960859 0.210714 0.585786 0.585786C0.210714 0.960859 0 1.46957 0 2V20C0 20.5304 0.210714 21.0391 0.585786 21.4142C0.960859 21.7893 1.46957 22 2 22H24C24.5304 22 25.0391 21.7893 25.4142 21.4142C25.7893 21.0391 26 20.5304 26 20V2C26 1.46957 25.7893 0.960859 25.4142 0.585786C25.0391 0.210714 24.5304 0 24 0ZM24 2V14.8438L20.7412 11.5863C20.5555 11.4005 20.335 11.2531 20.0923 11.1526C19.8497 11.052 19.5896 11.0003 19.3269 11.0003C19.0642 11.0003 18.8041 11.052 18.5614 11.1526C18.3187 11.2531 18.0982 11.4005 17.9125 11.5863L15.4125 14.0863L9.9125 8.58625C9.53747 8.21146 9.02896 8.00093 8.49875 8.00093C7.96854 8.00093 7.46003 8.21146 7.085 8.58625L2 13.6712V2H24ZM2 16.5L8.5 10L18.5 20H2V16.5ZM24 20H21.3288L16.8288 15.5L19.3288 13L24 17.6725V20ZM15 7.5C15 7.20333 15.088 6.91332 15.2528 6.66665C15.4176 6.41997 15.6519 6.22771 15.926 6.11418C16.2001 6.00065 16.5017 5.97094 16.7926 6.02882C17.0836 6.0867 17.3509 6.22956 17.5607 6.43934C17.7704 6.64912 17.9133 6.91639 17.9712 7.20736C18.0291 7.49834 17.9993 7.79994 17.8858 8.07403C17.7723 8.34811 17.58 8.58238 17.3334 8.7472C17.0867 8.91203 16.7967 9 16.5 9C16.1022 9 15.7206 8.84196 15.4393 8.56066C15.158 8.27936 15 7.89782 15 7.5Z"
                fill="#2D746D"></path>
        </symbol>
        <symbol fill="none" xmlns="http://www.w3.org/2000/svg" viewBox="0 0 32 32" id="hardscaping">
            <path opacity="0.2" d="M16 13H4V7H16V13ZM22 13V19H16V25H28V13H22Z" fill="#2D746D"></path>
            <path
                d="M28 6H4C3.73478 6 3.48043 6.10536 3.29289 6.29289C3.10536 6.48043 3 6.73478 3 7V25C3 25.2652 3.10536 25.5196 3.29289 25.7071C3.48043 25.8946 3.73478 26 4 26H28C28.2652 26 28.5196 25.8946 28.7071 25.7071C28.8946 25.5196 29 25.2652 29 25V7C29 6.73478 28.8946 6.48043 28.7071 6.29289C28.5196 6.10536 28.2652 6 28 6ZM11 18V14H21V18H11ZM5 18V14H9V18H5ZM23 14H27V18H23V14ZM27 12H17V8H27V12ZM15 8V12H5V8H15ZM5 20H15V24H5V20ZM17 24V20H27V24H17Z"
                fill="#2D746D"></path>
        </symbol>
        <symbol fill="none" xmlns="http://www.w3.org/2000/svg" viewBox="0 0 32 33" id="youtube">
            <g clip-path="url(#clip0_675_979)">
                <path opacity="0.2"
                    d="M28.3237 9.44124C28.2468 9.1329 28.0974 8.84734 27.8881 8.60822C27.6788 8.3691 27.4155 8.18331 27.12 8.06624C22.935 6.45624 16 6.49999 16 6.49999C16 6.49999 9.065 6.45624 4.875 8.07249C4.57954 8.18956 4.31623 8.37535 4.1069 8.61447C3.89756 8.85359 3.74822 9.13915 3.67125 9.44749C3.38375 10.5675 3 12.7612 3 16.5C3 20.2387 3.38375 22.4325 3.67625 23.5587C3.7536 23.8654 3.90258 24.1494 4.11096 24.3873C4.31935 24.6253 4.58119 24.8104 4.875 24.9275C9.065 26.5437 16 26.5 16 26.5C16 26.5 22.935 26.5437 27.125 24.9275C27.4197 24.811 27.6826 24.6262 27.8919 24.3882C28.1012 24.1502 28.2509 23.8659 28.3288 23.5587C28.6213 22.4337 29.005 20.2387 29.005 16.5C29.005 12.7612 28.6162 10.5675 28.3237 9.44124ZM14 20.5V12.5L20 16.5L14 20.5Z"
                    fill="#2D746D"></path>
                <path
                    d="M20.555 15.6675L14.555 11.6675C14.4044 11.567 14.2293 11.5093 14.0484 11.5005C13.8675 11.4918 13.6877 11.5323 13.528 11.6177C13.3684 11.7032 13.2349 11.8304 13.1419 11.9858C13.0489 12.1412 12.9999 12.3189 13 12.5V20.5C12.9999 20.6811 13.0489 20.8588 13.1419 21.0142C13.2349 21.1696 13.3684 21.2968 13.528 21.3823C13.6877 21.4677 13.8675 21.5082 14.0484 21.4995C14.2293 21.4907 14.4044 21.433 14.555 21.3325L20.555 17.3325C20.6922 17.2412 20.8047 17.1175 20.8825 16.9722C20.9603 16.827 21.001 16.6648 21.001 16.5C21.001 16.3352 20.9603 16.173 20.8825 16.0278C20.8047 15.8826 20.6922 15.7588 20.555 15.6675ZM15 18.6313V14.375L18.1975 16.5L15 18.6313ZM29.2913 9.19C29.1735 8.72919 28.9478 8.30298 28.6329 7.94654C28.318 7.59011 27.9228 7.31366 27.48 7.14C23.195 5.485 16.375 5.5 16 5.5C15.625 5.5 8.805 5.485 4.52 7.14C4.0772 7.31366 3.68204 7.59011 3.36712 7.94654C3.05219 8.30298 2.82653 8.72919 2.70875 9.19C2.385 10.4375 2 12.7175 2 16.5C2 20.2825 2.385 22.5625 2.70875 23.81C2.82636 24.271 3.05194 24.6975 3.36687 25.0542C3.68181 25.4108 4.07706 25.6875 4.52 25.8613C8.625 27.445 15.05 27.5 15.9175 27.5H16.0825C16.95 27.5 23.3787 27.445 27.48 25.8613C27.9229 25.6875 28.3182 25.4108 28.6331 25.0542C28.9481 24.6975 29.1736 24.271 29.2913 23.81C29.615 22.56 30 20.2825 30 16.5C30 12.7175 29.615 10.4375 29.2913 9.19ZM27.355 23.315C27.3169 23.4684 27.243 23.6105 27.1394 23.7298C27.0357 23.8491 26.9053 23.9421 26.7588 24.0013C22.8025 25.5288 16.0737 25.5013 15.9937 25.5013C15.9137 25.5013 9.1975 25.5238 5.24375 24.0013C5.09721 23.9421 4.96678 23.8491 4.86313 23.7298C4.75949 23.6105 4.6856 23.4684 4.6475 23.315C4.35 22.1738 4 20.0713 4 16.5C4 12.9288 4.35 10.8263 4.645 9.69125C4.68239 9.53698 4.75596 9.39382 4.85965 9.27362C4.96333 9.15342 5.09413 9.05963 5.24125 9C9.1975 7.4775 15.925 7.5 16.0063 7.5C16.0875 7.5 22.8025 7.4775 26.7563 9C26.9028 9.05915 27.0332 9.15217 27.1369 9.27146C27.2405 9.39074 27.3144 9.53289 27.3525 9.68625C27.65 10.8263 28 12.9288 28 16.5C28 20.0713 27.65 22.1738 27.355 23.3088V23.315Z"
                    fill="#2D746D"></path>
            </g>
            <defs>
                <clipPath id="clip0_675_979">
                    <rect width="32" height="32" fill="white" transform="translate(0 0.5)"></rect>
                </clipPath>
            </defs>
        </symbol>
        <symbol fill="none" xmlns="http://www.w3.org/2000/svg" viewBox="0 0 32 33" id="instagram">
            <g clip-path="url(#clip0_675_972)">
                <path opacity="0.2"
                    d="M22 4.5H10C8.4087 4.5 6.88258 5.13214 5.75736 6.25736C4.63214 7.38258 4 8.9087 4 10.5V22.5C4 24.0913 4.63214 25.6174 5.75736 26.7426C6.88258 27.8679 8.4087 28.5 10 28.5H22C23.5913 28.5 25.1174 27.8679 26.2426 26.7426C27.3679 25.6174 28 24.0913 28 22.5V10.5C28 8.9087 27.3679 7.38258 26.2426 6.25736C25.1174 5.13214 23.5913 4.5 22 4.5ZM16 21.5C15.0111 21.5 14.0444 21.2068 13.2221 20.6573C12.3999 20.1079 11.759 19.327 11.3806 18.4134C11.0022 17.4998 10.9031 16.4945 11.0961 15.5245C11.289 14.5546 11.7652 13.6637 12.4645 12.9645C13.1637 12.2652 14.0546 11.789 15.0245 11.5961C15.9945 11.4031 16.9998 11.5022 17.9134 11.8806C18.827 12.259 19.6079 12.8999 20.1573 13.7221C20.7068 14.5444 21 15.5111 21 16.5C21 17.8261 20.4732 19.0979 19.5355 20.0355C18.5979 20.9732 17.3261 21.5 16 21.5Z"
                    fill="#2D746D"></path>
                <path
                    d="M22 3.5H10C8.14409 3.50199 6.36477 4.24012 5.05245 5.55245C3.74012 6.86477 3.00199 8.64409 3 10.5V22.5C3.00199 24.3559 3.74012 26.1352 5.05245 27.4476C6.36477 28.7599 8.14409 29.498 10 29.5H22C23.8559 29.498 25.6352 28.7599 26.9476 27.4476C28.2599 26.1352 28.998 24.3559 29 22.5V10.5C28.998 8.64409 28.2599 6.86477 26.9476 5.55245C25.6352 4.24012 23.8559 3.50199 22 3.5ZM27 22.5C27 23.8261 26.4732 25.0979 25.5355 26.0355C24.5979 26.9732 23.3261 27.5 22 27.5H10C8.67392 27.5 7.40215 26.9732 6.46447 26.0355C5.52678 25.0979 5 23.8261 5 22.5V10.5C5 9.17392 5.52678 7.90215 6.46447 6.96447C7.40215 6.02678 8.67392 5.5 10 5.5H22C23.3261 5.5 24.5979 6.02678 25.5355 6.96447C26.4732 7.90215 27 9.17392 27 10.5V22.5ZM16 10.5C14.8133 10.5 13.6533 10.8519 12.6666 11.5112C11.6799 12.1705 10.9108 13.1075 10.4567 14.2039C10.0026 15.3003 9.88378 16.5067 10.1153 17.6705C10.3468 18.8344 10.9182 19.9035 11.7574 20.7426C12.5965 21.5818 13.6656 22.1532 14.8295 22.3847C15.9933 22.6162 17.1997 22.4974 18.2961 22.0433C19.3925 21.5892 20.3295 20.8201 20.9888 19.8334C21.6481 18.8467 22 17.6867 22 16.5C21.9983 14.9092 21.3657 13.384 20.2408 12.2592C19.116 11.1343 17.5908 10.5017 16 10.5ZM16 20.5C15.2089 20.5 14.4355 20.2654 13.7777 19.8259C13.1199 19.3864 12.6072 18.7616 12.3045 18.0307C12.0017 17.2998 11.9225 16.4956 12.0769 15.7196C12.2312 14.9437 12.6122 14.231 13.1716 13.6716C13.731 13.1122 14.4437 12.7312 15.2196 12.5769C15.9956 12.4225 16.7998 12.5017 17.5307 12.8045C18.2616 13.1072 18.8864 13.6199 19.3259 14.2777C19.7654 14.9355 20 15.7089 20 16.5C20 17.5609 19.5786 18.5783 18.8284 19.3284C18.0783 20.0786 17.0609 20.5 16 20.5ZM24 10C24 10.2967 23.912 10.5867 23.7472 10.8334C23.5824 11.08 23.3481 11.2723 23.074 11.3858C22.7999 11.4994 22.4983 11.5291 22.2074 11.4712C21.9164 11.4133 21.6491 11.2704 21.4393 11.0607C21.2296 10.8509 21.0867 10.5836 21.0288 10.2926C20.9709 10.0017 21.0007 9.70006 21.1142 9.42597C21.2277 9.15189 21.42 8.91762 21.6666 8.7528C21.9133 8.58797 22.2033 8.5 22.5 8.5C22.8978 8.5 23.2794 8.65804 23.5607 8.93934C23.842 9.22064 24 9.60218 24 10Z"
                    fill="#2D746D"></path>
            </g>
            <defs>
                <clipPath id="clip0_675_972">
                    <rect width="32" height="32" fill="white" transform="translate(0 0.5)"></rect>
                </clipPath>
            </defs>
        </symbol>
        <symbol fill="none" xmlns="http://www.w3.org/2000/svg" viewBox="0 0 32 33" id="twitter">
            <g clip-path="url(#clip0_675_965)">
                <path opacity="0.2"
                    d="M30 9.5L26 13.5C25.4675 21.855 18.49 28.5 10 28.5C6 28.5 5 27 5 27C5 27 9 25.5 11 22.5C11 22.5 4.10625 18.5 5.0975 7.5C5.0975 7.5 10.055 12.5 16 13.5V11.5C16 8.75 18.25 6.46625 21 6.5C21.9705 6.51127 22.9175 6.79964 23.7296 7.33114C24.5417 7.86264 25.185 8.61514 25.5837 9.5H30Z"
                    fill="#2D746D"></path>
                <path
                    d="M30.9237 9.11753C30.8481 8.93479 30.7199 8.77858 30.5555 8.66867C30.3911 8.55876 30.1978 8.50007 30 8.50003H26.1962C25.6645 7.59517 24.9077 6.84332 23.9993 6.31762C23.0909 5.79192 22.062 5.51026 21.0125 5.50003C20.2308 5.48966 19.4549 5.63583 18.7306 5.92994C18.0063 6.22405 17.3482 6.66014 16.795 7.21253C16.2249 7.77132 15.7724 8.43853 15.4642 9.17487C15.1559 9.9112 14.9981 10.7018 15 11.5V12.2613C9.96749 10.9338 5.85124 6.84003 5.80749 6.79628C5.67332 6.66093 5.50328 6.56673 5.31738 6.52479C5.13148 6.48284 4.93747 6.49488 4.75818 6.5595C4.5789 6.62413 4.42181 6.73863 4.30543 6.88953C4.18904 7.04044 4.11819 7.22146 4.10124 7.41128C3.56374 13.385 5.29749 17.3825 6.85124 19.6838C7.6092 20.8215 8.53126 21.8409 9.58748 22.7088C7.67873 24.9 4.68124 26.0513 4.64999 26.0638C4.50888 26.1166 4.38154 26.2007 4.27748 26.3097C4.17342 26.4186 4.09534 26.5497 4.04906 26.6931C4.00278 26.8365 3.98951 26.9885 4.01023 27.1378C4.03096 27.287 4.08514 27.4297 4.16874 27.555C4.26124 27.695 4.63749 28.1863 5.55374 28.645C6.68874 29.2125 8.18499 29.5 9.99999 29.5C18.835 29.5 26.215 22.6975 26.97 13.945L30.7075 10.2075C30.8473 10.0676 30.9425 9.88935 30.981 9.69533C31.0194 9.50131 30.9995 9.30023 30.9237 9.11753ZM25.2987 12.7938C25.1273 12.9656 25.0242 13.194 25.0087 13.4363C24.5 21.3225 17.91 27.5 9.99999 27.5C8.67999 27.5 7.74998 27.325 7.09749 27.115C8.53749 26.3338 10.5425 24.99 11.8325 23.055C11.908 22.9417 11.9597 22.8142 11.9842 22.6802C12.0087 22.5462 12.0056 22.4087 11.975 22.2759C11.9445 22.1432 11.8871 22.0181 11.8065 21.9083C11.7259 21.7986 11.6237 21.7064 11.5062 21.6375C11.49 21.6275 9.89874 20.67 8.44624 18.4763C6.81749 16.0138 5.99999 13.0475 5.99999 9.63628C7.99999 11.2613 11.6562 13.7838 15.8362 14.4863C15.9794 14.51 16.1261 14.5024 16.266 14.4637C16.4059 14.4251 16.5358 14.3565 16.6465 14.2627C16.7573 14.1688 16.8462 14.052 16.9073 13.9203C16.9683 13.7886 16.9999 13.6452 17 13.5V11.5C16.9989 10.9666 17.1044 10.4383 17.3105 9.94629C17.5166 9.45427 17.819 9.00843 18.2 8.63503C18.565 8.26886 18.9998 7.97972 19.4786 7.78475C19.9574 7.58978 20.4705 7.49296 20.9875 7.50003C22.57 7.52003 24.0487 8.48503 24.6675 9.90128C24.7455 10.0793 24.8737 10.2308 25.0364 10.3371C25.1991 10.4435 25.3893 10.5001 25.5837 10.5H27.5837L25.2987 12.7938Z"
                    fill="#2D746D"></path>
            </g>
            <defs>
                <clipPath id="clip0_675_965">
                    <rect width="32" height="32" fill="white" transform="translate(0 0.5)"></rect>
                </clipPath>
            </defs>
        </symbol>
        <symbol fill="none" xmlns="http://www.w3.org/2000/svg" viewBox="0 0 32 33" id="facebook">
            <path opacity="0.2"
                d="M28 16.5C28 18.8734 27.2962 21.1935 25.9776 23.1668C24.6591 25.1402 22.7849 26.6783 20.5922 27.5866C18.3995 28.4948 15.9867 28.7324 13.6589 28.2694C11.3312 27.8064 9.19295 26.6635 7.51472 24.9853C5.83649 23.3071 4.6936 21.1689 4.23058 18.8411C3.76756 16.5133 4.0052 14.1005 4.91345 11.9078C5.8217 9.71509 7.35977 7.84094 9.33316 6.52236C11.3066 5.20379 13.6266 4.5 16 4.5C19.1826 4.5 22.2348 5.76428 24.4853 8.01472C26.7357 10.2652 28 13.3174 28 16.5Z"
                fill="#2D746D"></path>
            <path
                d="M16 3.5C13.4288 3.5 10.9154 4.26244 8.77759 5.6909C6.63975 7.11935 4.97351 9.14968 3.98957 11.5251C3.00563 13.9006 2.74819 16.5144 3.2498 19.0362C3.75141 21.5579 4.98953 23.8743 6.80762 25.6924C8.6257 27.5105 10.9421 28.7486 13.4638 29.2502C15.9856 29.7518 18.5995 29.4944 20.9749 28.5104C23.3503 27.5265 25.3807 25.8603 26.8091 23.7224C28.2376 21.5846 29 19.0712 29 16.5C28.9964 13.0533 27.6256 9.74882 25.1884 7.31163C22.7512 4.87445 19.4467 3.50364 16 3.5ZM17 27.4538V19.5H20C20.2652 19.5 20.5196 19.3946 20.7071 19.2071C20.8946 19.0196 21 18.7652 21 18.5C21 18.2348 20.8946 17.9804 20.7071 17.7929C20.5196 17.6054 20.2652 17.5 20 17.5H17V14.5C17 13.9696 17.2107 13.4609 17.5858 13.0858C17.9609 12.7107 18.4696 12.5 19 12.5H21C21.2652 12.5 21.5196 12.3946 21.7071 12.2071C21.8946 12.0196 22 11.7652 22 11.5C22 11.2348 21.8946 10.9804 21.7071 10.7929C21.5196 10.6054 21.2652 10.5 21 10.5H19C17.9391 10.5 16.9217 10.9214 16.1716 11.6716C15.4214 12.4217 15 13.4391 15 14.5V17.5H12C11.7348 17.5 11.4804 17.6054 11.2929 17.7929C11.1054 17.9804 11 18.2348 11 18.5C11 18.7652 11.1054 19.0196 11.2929 19.2071C11.4804 19.3946 11.7348 19.5 12 19.5H15V27.4538C12.181 27.1964 9.56971 25.8622 7.7093 23.7287C5.8489 21.5952 4.8826 18.8266 5.0114 15.9988C5.1402 13.171 6.35419 10.5017 8.40085 8.54613C10.4475 6.59057 13.1693 5.4993 16 5.4993C18.8307 5.4993 21.5525 6.59057 23.5992 8.54613C25.6458 10.5017 26.8598 13.171 26.9886 15.9988C27.1174 18.8266 26.1511 21.5952 24.2907 23.7287C22.4303 25.8622 19.819 27.1964 17 27.4538Z"
                fill="#2D746D"></path>
        </symbol>
        <symbol fill="none" xmlns="http://www.w3.org/2000/svg" viewBox="0 0 30 24" id="trophy">
            <path
                d="M28 3H25V2C25 1.46957 24.7893 0.960859 24.4142 0.585786C24.0391 0.210714 23.5304 0 23 0H7C6.46957 0 5.96086 0.210714 5.58579 0.585786C5.21071 0.960859 5 1.46957 5 2V3H2C1.46957 3 0.960859 3.21071 0.585786 3.58579C0.210714 3.96086 0 4.46957 0 5V7C0 8.32608 0.526784 9.59785 1.46447 10.5355C1.92876 10.9998 2.47995 11.3681 3.08658 11.6194C3.69321 11.8707 4.34339 12 5 12H5.45625C6.04531 13.8668 7.16846 15.52 8.68688 16.7554C10.2053 17.9908 12.0524 18.7542 14 18.9513V22H11C10.7348 22 10.4804 22.1054 10.2929 22.2929C10.1054 22.4804 10 22.7348 10 23C10 23.2652 10.1054 23.5196 10.2929 23.7071C10.4804 23.8946 10.7348 24 11 24H19C19.2652 24 19.5196 23.8946 19.7071 23.7071C19.8946 23.5196 20 23.2652 20 23C20 22.7348 19.8946 22.4804 19.7071 22.2929C19.5196 22.1054 19.2652 22 19 22H16V18.9475C19.9925 18.5438 23.305 15.7425 24.51 12H25C26.3261 12 27.5979 11.4732 28.5355 10.5355C29.4732 9.59785 30 8.32608 30 7V5C30 4.46957 29.7893 3.96086 29.4142 3.58579C29.0391 3.21071 28.5304 3 28 3ZM5 10C4.20435 10 3.44129 9.68393 2.87868 9.12132C2.31607 8.55871 2 7.79565 2 7V5H5V9C5 9.33333 5.01625 9.66667 5.04875 10H5ZM23 8.8875C23 13.3275 19.4388 16.9675 15.0613 17H15C12.8783 17 10.8434 16.1571 9.34315 14.6569C7.84285 13.1566 7 11.1217 7 9V2H23V8.8875ZM28 7C28 7.79565 27.6839 8.55871 27.1213 9.12132C26.5587 9.68393 25.7956 10 25 10H24.9375C24.9785 9.63058 24.9994 9.25919 25 8.8875V5H28V7Z"
                fill="#2D746D"></path>
        </symbol>
        <symbol fill="none" xmlns="http://www.w3.org/2000/svg" viewBox="0 0 28 28" id="tree">
            <path
                d="M22.7625 5.82498C22.0391 4.09778 20.8214 2.6229 19.2624 1.58562C17.7034 0.548338 15.8726 -0.00506592 14 -0.00506592C12.1274 -0.00506592 10.2966 0.548338 8.73762 1.58562C7.1786 2.6229 5.96089 4.09778 5.2375 5.82498C3.68089 6.54615 2.36174 7.69555 1.43426 9.13878C0.506786 10.582 0.00931275 12.2594 1.60444e-06 13.975C-0.0137484 18.8275 3.92 22.875 8.7675 23C10.2339 23.0382 11.6873 22.7159 13 22.0612V27C13 27.2652 13.1054 27.5195 13.2929 27.7071C13.4804 27.8946 13.7348 28 14 28C14.2652 28 14.5196 27.8946 14.7071 27.7071C14.8946 27.5195 15 27.2652 15 27V22.0612C16.2423 22.6807 17.6118 23.0022 19 23H19.2325C24.08 22.875 28.0138 18.83 28 13.9775C27.9916 12.2614 27.4945 10.5833 26.567 9.13946C25.6394 7.69566 24.3198 6.54596 22.7625 5.82498ZM19.1813 21C17.7372 21.0395 16.3165 20.6289 15.1163 19.825C15.0771 19.8 15.0383 19.7762 15 19.7537V14.6175L20.4475 11.895C20.565 11.8362 20.6698 11.7549 20.7559 11.6556C20.842 11.5563 20.9077 11.4411 20.9493 11.3164C20.9908 11.1917 21.0074 11.0601 20.9981 10.929C20.9888 10.798 20.9538 10.67 20.895 10.5525C20.8362 10.4349 20.7549 10.3301 20.6556 10.244C20.5564 10.1579 20.4411 10.0922 20.3164 10.0507C20.1918 10.0091 20.0601 9.99254 19.9291 10.0019C19.798 10.0112 19.67 10.0462 19.5525 10.105L15 12.3825V8.99998C15 8.73476 14.8946 8.48041 14.7071 8.29287C14.5196 8.10533 14.2652 7.99998 14 7.99998C13.7348 7.99998 13.4804 8.10533 13.2929 8.29287C13.1054 8.48041 13 8.73476 13 8.99998V15.3825L8.4475 13.105C8.21013 12.9863 7.93534 12.9668 7.68357 13.0507C7.4318 13.1346 7.22369 13.3151 7.105 13.5525C6.98632 13.7898 6.96679 14.0646 7.05071 14.3164C7.13463 14.5682 7.31513 14.7763 7.5525 14.895L13 17.6175V19.75C12.9613 19.7725 12.9225 19.7962 12.885 19.8212C11.6847 20.6265 10.2636 21.0384 8.81875 21C7.23779 20.9605 5.71678 20.3868 4.50352 19.3724C3.29025 18.358 2.45624 16.9627 2.13734 15.4137C1.81844 13.8647 2.03346 12.2534 2.74735 10.8422C3.46125 9.43109 4.63195 8.30325 6.06875 7.64248C6.52317 7.43427 6.88245 7.06249 7.075 6.60123C7.6458 5.23706 8.60715 4.07207 9.83817 3.25271C11.0692 2.43336 12.515 1.9962 13.9938 1.9962C15.4725 1.9962 16.9183 2.43336 18.1493 3.25271C19.3804 4.07207 20.3417 5.23706 20.9125 6.60123C21.1051 7.06249 21.4643 7.43427 21.9188 7.64248C23.3555 8.30325 24.5263 9.43109 25.2402 10.8422C25.954 12.2534 26.1691 13.8647 25.8502 15.4137C25.5313 16.9627 24.6973 18.358 23.484 19.3724C22.2707 20.3868 20.7497 20.9605 19.1688 21H19.1813Z"
                fill="#2D746D"></path>
        </symbol>
        <symbol fill="none" xmlns="http://www.w3.org/2000/svg" viewBox="0 0 26 22"
            id="certified">
            <path
                d="M22 9C22 9.26522 21.8946 9.51957 21.7071 9.70711C21.5196 9.89464 21.2652 10 21 10H16C15.7348 10 15.4804 9.89464 15.2929 9.70711C15.1054 9.51957 15 9.26522 15 9C15 8.73478 15.1054 8.48043 15.2929 8.29289C15.4804 8.10536 15.7348 8 16 8H21C21.2652 8 21.5196 8.10536 21.7071 8.29289C21.8946 8.48043 22 8.73478 22 9ZM21 12H16C15.7348 12 15.4804 12.1054 15.2929 12.2929C15.1054 12.4804 15 12.7348 15 13C15 13.2652 15.1054 13.5196 15.2929 13.7071C15.4804 13.8946 15.7348 14 16 14H21C21.2652 14 21.5196 13.8946 21.7071 13.7071C21.8946 13.5196 22 13.2652 22 13C22 12.7348 21.8946 12.4804 21.7071 12.2929C21.5196 12.1054 21.2652 12 21 12ZM26 2V20C26 20.5304 25.7893 21.0391 25.4142 21.4142C25.0391 21.7893 24.5304 22 24 22H2C1.46957 22 0.960859 21.7893 0.585786 21.4142C0.210714 21.0391 0 20.5304 0 20V2C0 1.46957 0.210714 0.960859 0.585786 0.585786C0.960859 0.210714 1.46957 0 2 0H24C24.5304 0 25.0391 0.210714 25.4142 0.585786C25.7893 0.960859 26 1.46957 26 2ZM24 20V2H2V20H24ZM13.9675 15.75C14.0338 16.0069 13.9953 16.2797 13.8605 16.5082C13.7257 16.7368 13.5057 16.9024 13.2488 16.9688C12.9918 17.0351 12.7191 16.9966 12.4905 16.8618C12.262 16.727 12.0963 16.5069 12.03 16.25C11.7013 14.9675 10.3975 14 8.99875 14C7.6 14 6.2975 14.9675 5.9675 16.25C5.9012 16.5069 5.73554 16.727 5.50698 16.8618C5.27842 16.9966 5.00568 17.0351 4.74875 16.9688C4.49182 16.9024 4.27176 16.7368 4.13696 16.5082C4.00217 16.2797 3.9637 16.0069 4.03 15.75C4.3545 14.5422 5.12157 13.5007 6.17875 12.8325C5.61696 12.274 5.23363 11.5614 5.07736 10.7848C4.92109 10.0082 4.99891 9.20273 5.30096 8.47044C5.60301 7.73815 6.11568 7.11202 6.774 6.67145C7.43231 6.23087 8.20661 5.99567 8.99875 5.99567C9.79089 5.99567 10.5652 6.23087 11.2235 6.67145C11.8818 7.11202 12.3945 7.73815 12.6965 8.47044C12.9986 9.20273 13.0764 10.0082 12.9201 10.7848C12.7639 11.5614 12.3805 12.274 11.8188 12.8325C12.8771 13.4997 13.6448 14.5416 13.9688 15.75H13.9675ZM9 12C9.39556 12 9.78224 11.8827 10.1111 11.6629C10.44 11.4432 10.6964 11.1308 10.8478 10.7654C10.9991 10.3999 11.0387 9.99778 10.9616 9.60982C10.8844 9.22186 10.6939 8.86549 10.4142 8.58579C10.1345 8.30608 9.77814 8.1156 9.39018 8.03843C9.00222 7.96126 8.60009 8.00087 8.23463 8.15224C7.86918 8.30362 7.55682 8.55996 7.33706 8.88886C7.1173 9.21776 7 9.60444 7 10C7 10.5304 7.21071 11.0391 7.58579 11.4142C7.96086 11.7893 8.46957 12 9 12Z"
                fill="#2D746D"></path>
        </symbol>

    </defs>
</svg>