<svg width="1137" height="32" fill="none" xmlns="http://www.w3.org/2000/svg">
    <g fill="#2D746D" id='garden-design'>
        <path opacity=".2" d="M28 7v15.258l-4.965-4.965a1 1 0 0 0-1.414 0L18.414 20.5l-6.207-6.207a1.001 1.001 0 0 0-1.415 0L4 21.085V7a1 1 0 0 1 1-1h22a1 1 0 0 1 1 1Z"/>
        <path d="M27 5H5a2 2 0 0 0-2 2v18a2 2 0 0 0 2 2h22a2 2 0 0 0 2-2V7a2 2 0 0 0-2-2Zm0 2v12.844l-3.259-3.258a1.998 1.998 0 0 0-2.828 0l-2.5 2.5-5.5-5.5a2 2 0 0 0-2.828 0L5 18.671V7h22ZM5 21.5l6.5-6.5 10 10H5v-3.5ZM27 25h-2.671l-4.5-4.5 2.5-2.5L27 22.672V25Zm-9-12.5a1.5 1.5 0 1 1 3 0 1.5 1.5 0 0 1-3 0Z"/>
    </g>
    <g fill="#2D746D" clip-path="url(#a)" id="lawn-maintenance">
        <path opacity=".2" d="M59.317 17.683c-3.99-6.652 1.33-13.302 12.637-12.637.67 11.306-5.985 16.628-12.637 12.637Zm-15.285-7.65c-.475 8.076 4.277 11.874 9.027 9.026 2.85-4.75-.95-9.501-9.027-9.027Z"/>
        <path d="M72.954 4.986a1 1 0 0 0-.94-.94c-6.47-.375-11.665 1.593-13.898 5.278-1.475 2.435-1.472 5.395-.02 8.217a8.922 8.922 0 0 0-1.771 3.37l-2.034-2.036c.978-2.041.94-4.17-.125-5.936-1.655-2.723-5.463-4.189-10.192-3.905a1 1 0 0 0-.94.94c-.279 4.729 1.182 8.537 3.906 10.187.9.55 1.935.84 2.99.84a6.822 6.822 0 0 0 2.945-.71L56 23.416V27a1 1 0 1 0 2 0v-3.686a6.951 6.951 0 0 1 1.534-4.375 9.238 9.238 0 0 0 4.163 1.05 7.611 7.611 0 0 0 3.98-1.108c3.684-2.23 5.657-7.425 5.277-13.895ZM52.758 17.343l-3.052-3.05a1 1 0 0 0-1.414 1.413l3.052 3.052c-1.202.397-2.367.298-3.368-.308C46.06 17.29 44.974 14.54 45 11c3.539-.031 6.289 1.059 7.45 2.976.606 1.002.705 2.167.307 3.367Zm13.882-.17c-1.675 1.013-3.644 1.09-5.644.25l6.711-6.713a1 1 0 0 0-1.413-1.415L59.58 16c-.845-2-.769-3.97.25-5.644 1.743-2.875 5.875-4.475 11.166-4.353.12 5.29-1.48 9.427-4.357 11.17Z"/>
    </g>
    <g fill="#2D746D" clip-path="url(#b)" id="hardscaping">
        <path opacity=".2" d="M100 13H88V7h12v6Zm6 0v6h-6v6h12V13h-6Z"/>
        <path d="M112 6H88a1 1 0 0 0-1 1v18a1 1 0 0 0 1 1h24a1 1 0 0 0 1-1V7a.998.998 0 0 0-1-1ZM95 18v-4h10v4H95Zm-6 0v-4h4v4h-4Zm18-4h4v4h-4v-4Zm4-2h-10V8h10v4ZM99 8v4H89V8h10ZM89 20h10v4H89v-4Zm12 4v-4h10v4h-10Z"/>
    </g>
    <g fill="#2D746D" clip-path="url(#c)" id="irrigation">
        <path opacity=".2" d="M135 14v4a.998.998 0 0 1-1 1h-4a1 1 0 0 1-1-1v-4a.998.998 0 0 1 1-1h4a1 1 0 0 1 1 1Zm18-9h-6a1 1 0 0 0-1 1v6a.998.998 0 0 0 1 1h6a1 1 0 0 0 1-1V6a.998.998 0 0 0-1-1Zm0 14h-6a1 1 0 0 0-1 1v6a.998.998 0 0 0 1 1h6a1 1 0 0 0 1-1v-6a.998.998 0 0 0-1-1Z"/>
        <path d="M147 14h6a2 2 0 0 0 2-2V6a2 2 0 0 0-2-2h-6a2 2 0 0 0-2 2v2h-1a3.999 3.999 0 0 0-4 4v3h-4v-1a2 2 0 0 0-2-2h-4a2 2 0 0 0-2 2v4a2 2 0 0 0 2 2h4a2 2 0 0 0 2-2v-1h4v3a3.997 3.997 0 0 0 4 4h1v2a2 2 0 0 0 2 2h6a2 2 0 0 0 2-2v-6a2 2 0 0 0-2-2h-6a2 2 0 0 0-2 2v2h-1a2 2 0 0 1-2-2v-8a2 2 0 0 1 2-2h1v2a2 2 0 0 0 2 2Zm-13 4h-4v-4h4v4Zm13 2h6v6h-6v-6Zm0-14h6v6h-6V6Z"/>
    </g>
    <g fill="#2D746D" clip-path="url(#d)" id="tree">
        <path opacity=".2" d="M197 15.977a7.996 7.996 0 0 1-8.383 8.013 8.001 8.001 0 0 1-4.057-1.336 1 1 0 0 0-1.125 0 8 8 0 1 1-7.779-13.922 1 1 0 0 0 .5-.52 8.505 8.505 0 0 1 7.84-5.217 8.501 8.501 0 0 1 7.84 5.216c.096.23.275.416.5.521A8.003 8.003 0 0 1 197 15.977Z"/>
        <path d="M192.763 7.825A9.506 9.506 0 0 0 184 1.995a9.498 9.498 0 0 0-8.762 5.83 9.04 9.04 0 0 0-5.238 8.15c-.014 4.852 3.92 8.9 8.768 9.025A8.96 8.96 0 0 0 183 24.06V29a.998.998 0 0 0 1 1 .999.999 0 0 0 1-1V24.06c1.242.62 2.612.941 4 .939h.233c4.847-.125 8.781-4.17 8.767-9.023a9.025 9.025 0 0 0-5.237-8.152ZM189.181 23a6.964 6.964 0 0 1-4.065-1.175 3.841 3.841 0 0 0-.116-.071v-5.137l5.448-2.722a1.004 1.004 0 0 0 .447-1.343 1.007 1.007 0 0 0-.579-.501.999.999 0 0 0-.763.054L185 14.382V11a.998.998 0 0 0-1-1 1 1 0 0 0-1 1v6.382l-4.552-2.277a1.001 1.001 0 0 0-.895 1.79L183 19.617v2.133a2.302 2.302 0 0 0-.115.071 6.999 6.999 0 1 1-6.816-12.179 1.99 1.99 0 0 0 1.006-1.04 7.501 7.501 0 0 1 13.838 0c.192.46.551.832 1.006 1.04a6.999 6.999 0 0 1 1.565 11.73A6.999 6.999 0 0 1 189.169 23h.012Z"/>
    </g>
    <g fill="#2D746D" clip-path="url(#e)" id="certified">
        <path opacity=".2" d="M237 6h-22a1 1 0 0 0-1 1v18a.998.998 0 0 0 1 1h22a1 1 0 0 0 1-1V7a.998.998 0 0 0-1-1Zm-15 12a3.003 3.003 0 0 1-2.772-1.852 2.998 2.998 0 0 1 .651-3.27 2.998 2.998 0 0 1 4.615.455 2.998 2.998 0 0 1-.373 3.788A2.998 2.998 0 0 1 222 18Z"/>
        <path d="M235 14a.998.998 0 0 1-1 1h-5a1 1 0 1 1 0-2h5a1 1 0 0 1 1 1Zm-1 3h-5a1 1 0 1 0 0 2h5a1 1 0 1 0 0-2Zm5-10v18a2 2 0 0 1-2 2h-22a2 2 0 0 1-2-2V7a2 2 0 0 1 2-2h22a2 2 0 0 1 2 2Zm-2 18V7h-22v18h22Zm-10.032-4.25a1.002 1.002 0 0 1-1.938.5c-.329-1.282-1.632-2.25-3.031-2.25-1.399 0-2.702.968-3.032 2.25a.997.997 0 0 1-1.218.719 1.002 1.002 0 0 1-.719-1.219 4.983 4.983 0 0 1 2.149-2.918 4.005 4.005 0 0 1-.878-4.362 4.002 4.002 0 0 1 7.396 0 4.003 4.003 0 0 1-.878 4.362 4.972 4.972 0 0 1 2.15 2.918h-.001ZM222 17a1.998 1.998 0 0 0 1.414-3.414 1.997 1.997 0 0 0-3.077.303 1.998 1.998 0 0 0 .249 2.525A2 2 0 0 0 222 17Z"/>
    </g>
    <g fill="#2D746D" clip-path="url(#f)" id="leaf">
        <path opacity=".2" d="M259.976 24.024c-5.986-9.976 2-19.953 18.955-18.955.998 16.96-8.978 24.941-18.955 18.955Z"/>
        <path d="M279.931 5.009a1 1 0 0 0-.94-.94c-9.516-.56-17.138 2.306-20.388 7.68a10.88 10.88 0 0 0-1.595 6.126c.071 1.99.651 4 1.723 5.981l-2.438 2.438a.999.999 0 0 0 .707 1.708c.265 0 .52-.106.708-.293l2.437-2.44c1.98 1.072 3.991 1.652 5.98 1.723a10.864 10.864 0 0 0 6.125-1.595c5.375-3.25 8.241-10.87 7.681-20.388Zm-8.712 18.678c-2.844 1.723-6.21 1.75-9.589.097l11.079-11.078a1.012 1.012 0 0 0 .293-.707 1.005 1.005 0 0 0-.293-.708.994.994 0 0 0-.708-.293 1.005 1.005 0 0 0-.707.293l-11.078 11.084c-1.648-3.375-1.625-6.75.097-9.589 2.761-4.559 9.325-7.055 17.663-6.757.299 8.332-2.198 14.897-6.757 17.658Z"/>
    </g>
    <g fill="#2D746D" clip-path="url(#g)" id="trophy">
        <path opacity=".2" d="M319 7v6.887c0 4.963-3.969 9.075-8.931 9.113A9.001 9.001 0 0 1 301 14V7a.998.998 0 0 1 1-1h16a1 1 0 0 1 1 1Z"/>
        <path d="M323 8h-3V7a2 2 0 0 0-2-2h-16a2 2 0 0 0-2 2v1h-3a2 2 0 0 0-2 2v2a5.002 5.002 0 0 0 5 5h.456A10.012 10.012 0 0 0 309 23.951V27h-3a1 1 0 1 0 0 2h8a1 1 0 1 0 0-2h-3v-3.052c3.993-.404 7.305-3.206 8.51-6.948h.49a5.002 5.002 0 0 0 5-5v-2a2 2 0 0 0-2-2Zm-23 7a2.998 2.998 0 0 1-3-3v-2h3v4c0 .333.016.667.049 1H300Zm18-1.113c0 4.44-3.561 8.08-7.939 8.113H310a8 8 0 0 1-8-8V7h16v6.887ZM323 12a2.999 2.999 0 0 1-3 3h-.062c.041-.37.061-.74.062-1.113V10h3v2Z"/>
    </g>
    <g fill="#2D746D" clip-path="url(#h)" id="flower">
        <path opacity=".2" d="M357.154 8.25A9.998 9.998 0 0 0 352 17a9.999 9.999 0 0 0-5.154-8.75C348.5 4.75 352 3 352 3s3.5 1.75 5.154 5.25Z"/>
        <path d="M362 6a10.936 10.936 0 0 0-4.42.929c-1.887-3.172-4.99-4.75-5.132-4.824a1.003 1.003 0 0 0-.896 0c-.142.072-3.249 1.652-5.132 4.824A10.936 10.936 0 0 0 342 6a1 1 0 0 0-1 1v5a11.01 11.01 0 0 0 10 10.954v4.428l-4.552-2.277a1.005 1.005 0 0 0-1.104.139 1.007 1.007 0 0 0-.293 1.072.992.992 0 0 0 .501.579l6 3a1.004 1.004 0 0 0 .896 0l6-3a1 1 0 0 0-.896-1.79L353 27.382v-4.428A11.011 11.011 0 0 0 363 12V7a.998.998 0 0 0-1-1Zm-10-1.849c.831.51 2.635 1.774 3.83 3.75A11.057 11.057 0 0 0 352 12.42a11.052 11.052 0 0 0-3.83-4.521c1.196-1.974 2.999-3.238 3.83-3.748ZM343 12V8.055A9.011 9.011 0 0 1 351 17v3.945A9.011 9.011 0 0 1 343 12Zm18 0a9.012 9.012 0 0 1-8 8.945V17a9.012 9.012 0 0 1 8-8.945V12Z"/>
    </g>
    <g fill="#2D746D" clip-path="url(#i)" id="star">
        <path opacity=".2" d="M401.016 18.462a1.012 1.012 0 0 0-.317.987l1.69 7.317a1.002 1.002 0 0 1-1.486 1.086l-6.388-3.875a.99.99 0 0 0-1.03 0l-6.387 3.875a1 1 0 0 1-1.487-1.086l1.69-7.317a1.01 1.01 0 0 0-.317-.987l-5.639-4.918a.997.997 0 0 1-.304-1.07 1.003 1.003 0 0 1 .872-.689l7.432-.643a1.002 1.002 0 0 0 .834-.61l2.904-6.92A.995.995 0 0 1 394 3.01a1 1 0 0 1 .918.603l2.903 6.92a1.005 1.005 0 0 0 .834.61l7.433.642a1 1 0 0 1 .567 1.759l-5.639 4.918Z"/>
        <path d="M407.9 12.161a1.999 1.999 0 0 0-1.726-1.375l-7.424-.64-2.91-6.92a1.992 1.992 0 0 0-3.68 0l-2.901 6.92-7.433.644a2.002 2.002 0 0 0-1.734 1.375 1.997 1.997 0 0 0 .596 2.133l5.638 4.927-1.69 7.317a1.996 1.996 0 0 0 .772 2.072 1.999 1.999 0 0 0 2.208.096l6.375-3.875 6.389 3.875a2 2 0 0 0 2.98-2.168l-1.689-7.325 5.638-4.92a1.999 1.999 0 0 0 .591-2.136Zm-1.902.625-5.638 4.92a2.004 2.004 0 0 0-.635 1.964l1.694 7.33-6.384-3.875a1.986 1.986 0 0 0-2.067 0L386.593 27l1.682-7.325a1.996 1.996 0 0 0-.635-1.964L382 12.794v-.011l7.43-.643a1.999 1.999 0 0 0 1.669-1.219L394 4.01l2.9 6.911a2.001 2.001 0 0 0 1.669 1.219l7.431.643v.008l-.002-.005Z"/>
    </g>
    <g fill="#2D746D" clip-path="url(#j)" id="smiley">
        <path opacity=".2" d="M448 16a12.004 12.004 0 0 1-7.408 11.087A12 12 0 1 1 448 16Z"/>
        <path d="M436 3a12.997 12.997 0 0 0-12.01 8.025 12.996 12.996 0 0 0 2.818 14.167 12.998 12.998 0 0 0 20.001-1.97A12.996 12.996 0 0 0 449 16a13.012 13.012 0 0 0-13-13Zm0 24a10.998 10.998 0 0 1-10.789-13.146A11 11 0 0 1 447 16a11.011 11.011 0 0 1-11 11Zm-6-13.5a1.499 1.499 0 1 1 2.998 0 1.499 1.499 0 0 1-2.998 0Zm12 0a1.499 1.499 0 1 1-2.998 0 1.499 1.499 0 0 1 2.998 0Zm-.135 6c-1.286 2.224-3.424 3.5-5.865 3.5-2.441 0-4.579-1.275-5.865-3.5a1.008 1.008 0 0 1-.127-.774.996.996 0 0 1 .85-.755 1.005 1.005 0 0 1 .754.218c.104.086.19.192.253.311.934 1.614 2.401 2.5 4.135 2.5s3.201-.887 4.135-2.5a1.013 1.013 0 0 1 .607-.497 1.005 1.005 0 0 1 1.079.36.996.996 0 0 1 .044 1.137Z"/>
    </g>
    <g fill="#2D746D" clip-path="url(#k)" id="files">
        <path opacity=".2" d="M488 9v14a.998.998 0 0 1-1 1h-3V13l-5-5h-7V5a.998.998 0 0 1 1-1h10l5 5Z"/>
        <path d="m488.708 8.293-5-5A1.006 1.006 0 0 0 483 3h-10a2 2 0 0 0-2 2v2h-2a2 2 0 0 0-2 2v18a2 2 0 0 0 2 2h14a2 2 0 0 0 2-2v-2h2a2 2 0 0 0 2-2V9a1.006 1.006 0 0 0-.292-.707ZM483 27h-14V9h9.586L483 13.414V27Zm4-4h-2V13a1.005 1.005 0 0 0-.292-.707l-5-5A1.006 1.006 0 0 0 479 7h-6V5h9.586L487 9.414V23Zm-7-4a.998.998 0 0 1-1 1h-6a1 1 0 1 1 0-2h6a1 1 0 0 1 1 1Zm0 4a.998.998 0 0 1-1 1h-6a1 1 0 1 1 0-2h6a1 1 0 0 1 1 1Z"/>
    </g>
    <g fill="#2D746D" clip-path="url(#l)" id="flag">
        <path opacity=".2" d="M531 6v15c-8 6.929-14-6.929-22 0V6c8-6.929 14 6.929 22 0Z"/>
        <path d="M508.345 5.25A1.002 1.002 0 0 0 508 6v21a.998.998 0 0 0 1 1 1 1 0 0 0 1-1v-5.529c3.349-2.645 6.234-1.218 9.556.427 2.05 1.013 4.258 2.106 6.625 2.106 1.742 0 3.568-.594 5.478-2.25a1 1 0 0 0 .345-.75V6a.999.999 0 0 0-1.659-.75c-3.5 3.029-6.465 1.561-9.901-.14-3.56-1.765-7.597-3.761-12.099.14ZM530 20.531c-3.349 2.645-6.234 1.218-9.556-.426-3.125-1.544-6.602-3.266-10.444-1.05V6.474c3.349-2.645 6.234-1.219 9.556.425 3.125 1.544 6.603 3.266 10.444 1.05V20.53Z"/>
    </g>
    <g fill="#2D746D" clip-path="url(#m)" id="Check">
        <path opacity=".2" d="M574 16a12.004 12.004 0 0 1-7.408 11.087A12 12 0 1 1 574 16Z"/>
        <path d="M567.708 12.293a1.006 1.006 0 0 1 0 1.415l-7 7A1.008 1.008 0 0 1 560 21a1 1 0 0 1-.707-.294l-3-3a1 1 0 1 1 1.415-1.415L560 18.587l6.293-6.293a.994.994 0 0 1 1.09-.218c.121.05.232.125.325.218ZM575 16a12.996 12.996 0 0 1-8.025 12.01A13 13 0 1 1 562 3a13.012 13.012 0 0 1 13 13Zm-2 0a10.998 10.998 0 0 0-13.146-10.789 10.997 10.997 0 0 0-8.643 8.643A11.004 11.004 0 0 0 562 27a11.016 11.016 0 0 0 11-11Z"/>
    </g>
    <g fill="#2D746D" clip-path="url(#n)" id="Minus">
        <path opacity=".2" d="M616 16a12.004 12.004 0 0 1-7.408 11.087A12 12 0 1 1 616 16Z"/>
        <path d="M610 16a.998.998 0 0 1-1 1h-10a1 1 0 1 1 0-2h10a1 1 0 0 1 1 1Zm7 0a12.996 12.996 0 0 1-8.025 12.01A13 13 0 1 1 604 3a13.012 13.012 0 0 1 13 13Zm-2 0a10.998 10.998 0 0 0-13.146-10.789 10.997 10.997 0 0 0-8.643 8.643A11.004 11.004 0 0 0 604 27a11.016 11.016 0 0 0 11-11Z"/>
    </g>
    <g fill="#2D746D" clip-path="url(#o)" id="Plus">
        <path opacity=".2" d="M658 16a12.004 12.004 0 0 1-7.408 11.087A12 12 0 1 1 658 16Z"/>
        <path d="M646 3a12.997 12.997 0 0 0-12.01 8.025 12.996 12.996 0 0 0 2.818 14.167 12.998 12.998 0 0 0 20.001-1.97A12.996 12.996 0 0 0 659 16a13.012 13.012 0 0 0-13-13Zm0 24a10.998 10.998 0 0 1-10.789-13.146A11 11 0 0 1 657 16a11.011 11.011 0 0 1-11 11Zm6-11a.998.998 0 0 1-1 1h-4v4a.998.998 0 0 1-1 1 1 1 0 0 1-1-1v-4h-4a1 1 0 1 1 0-2h4v-4a.998.998 0 0 1 1-1 1 1 0 0 1 1 1v4h4a1 1 0 0 1 1 1Z"/>
    </g>
    <g fill="#2D746D" clip-path="url(#p)" id="Arrow">
        <path opacity=".2" d="M696 8v13L683 8h13Z"/>
        <path d="M696 7h-13a1 1 0 0 0-.708 1.707l5.794 5.793-8.794 8.793a1.008 1.008 0 0 0-.216 1.09 1.008 1.008 0 0 0 .541.541 1 1 0 0 0 1.09-.216l8.793-8.794 5.792 5.793a1.003 1.003 0 0 0 1.54-.151A1 1 0 0 0 697 21V8a.998.998 0 0 0-1-1Zm-1 11.586-4.793-4.792L685.414 9H695v9.586Z"/>
    </g>
    <g fill="#2D746D" clip-path="url(#q)" id="Facebook">
        <path opacity=".2" d="M742 16a12.004 12.004 0 0 1-7.408 11.087A12 12 0 1 1 742 16Z"/>
        <path d="M730 3a12.997 12.997 0 0 0-12.01 8.025 12.996 12.996 0 0 0 2.818 14.167 12.998 12.998 0 0 0 20.001-1.97A12.996 12.996 0 0 0 743 16a13.012 13.012 0 0 0-13-13Zm1 23.954V19h3a1 1 0 1 0 0-2h-3v-3a2 2 0 0 1 2-2h2a1 1 0 1 0 0-2h-2a3.998 3.998 0 0 0-4 4v3h-3a1 1 0 1 0 0 2h3v7.954a11.002 11.002 0 0 1-9.989-11.455A11 11 0 1 1 731 26.954Z"/>
    </g>
    <g fill="#2D746D" clip-path="url(#r)" id="Twitter">
        <path opacity=".2" d="m786 9-4 4c-.532 8.355-7.51 15-16 15-4 0-5-1.5-5-1.5s4-1.5 6-4.5c0 0-6.894-4-5.903-15 0 0 4.958 5 10.903 6v-2c0-2.75 2.25-5.034 5-5a5.095 5.095 0 0 1 4.584 3H786Z"/>
        <path d="M786.924 8.618A1.005 1.005 0 0 0 786 8h-3.804a6.08 6.08 0 0 0-5.184-3 5.856 5.856 0 0 0-4.217 1.713A5.98 5.98 0 0 0 771 11v.761c-5.033-1.327-9.149-5.421-9.193-5.465a.998.998 0 0 0-1.706.615c-.537 5.974 1.196 9.972 2.75 12.273a13.87 13.87 0 0 0 2.736 3.025c-1.908 2.191-4.906 3.342-4.937 3.355a1.01 1.01 0 0 0-.601.63.999.999 0 0 0 .12.862c.092.139.468.63 1.385 1.089 1.135.567 2.631.855 4.446.855 8.835 0 16.215-6.802 16.97-15.555l3.737-3.737a1.003 1.003 0 0 0 .217-1.09Zm-5.625 3.676a.995.995 0 0 0-.29.642C780.5 20.823 773.91 27 766 27c-1.32 0-2.25-.175-2.903-.385 1.44-.781 3.445-2.125 4.735-4.06a.985.985 0 0 0 .143-.78 1.002 1.002 0 0 0-.469-.638c-.016-.01-1.607-.967-3.06-3.16-1.629-2.463-2.446-5.43-2.446-8.84 2 1.624 5.656 4.147 9.836 4.85A1.001 1.001 0 0 0 773 13v-2a3.997 3.997 0 0 1 1.2-2.865A3.861 3.861 0 0 1 776.987 7c1.583.02 3.062.985 3.68 2.401a1.005 1.005 0 0 0 .917.599h2l-2.285 2.294Z"/>
    </g>
    <g fill="#2D746D" clip-path="url(#s)" id="Instagram">
        <path opacity=".2" d="M820 4h-12a6.003 6.003 0 0 0-6 6v12a6 6 0 0 0 6 6h12a6.002 6.002 0 0 0 6-6V10a6 6 0 0 0-6-6Zm-6 17a4.999 4.999 0 1 1 0-9.998A4.999 4.999 0 0 1 814 21Z"/>
        <path d="M820 3h-12a7.01 7.01 0 0 0-7 7v12a7.009 7.009 0 0 0 7 7h12a7.01 7.01 0 0 0 7-7V10a7.008 7.008 0 0 0-7-7Zm5 19a5.002 5.002 0 0 1-5 5h-12a5.002 5.002 0 0 1-5-5V10a5.002 5.002 0 0 1 5-5h12a5.002 5.002 0 0 1 5 5v12Zm-11-12a5.996 5.996 0 0 0-5.543 3.704 6.005 6.005 0 0 0 1.3 6.539 6.002 6.002 0 0 0 9.232-.91A6.002 6.002 0 0 0 820 16a6.007 6.007 0 0 0-6-6Zm0 10a4 4 0 1 1 0-8 4 4 0 0 1 0 8Zm8-10.5a1.499 1.499 0 1 1-2.998 0 1.499 1.499 0 0 1 2.998 0Z"/>
    </g>
    <g fill="#2D746D" clip-path="url(#t)" id="Youtube">
        <path opacity=".2" d="M868.324 8.941a2.005 2.005 0 0 0-1.204-1.375C862.935 5.956 856 6 856 6s-6.935-.044-11.125 1.573a2 2 0 0 0-1.204 1.375C843.384 10.068 843 12.26 843 16c0 3.739.384 5.933.676 7.059a1.996 1.996 0 0 0 1.199 1.369C849.065 26.044 856 26 856 26s6.935.044 11.125-1.572a1.995 1.995 0 0 0 1.204-1.37c.292-1.124.676-3.32.676-7.058 0-3.739-.389-5.932-.681-7.059ZM854 20.001v-8l6 4-6 4Z"/>
        <path d="m860.555 15.168-6-4a1.003 1.003 0 0 0-1.413.318A1.001 1.001 0 0 0 853 12v8a1.001 1.001 0 0 0 1.555.832l6-4a.993.993 0 0 0 .446-.832.998.998 0 0 0-.446-.832ZM855 18.13v-4.256L858.198 16 855 18.131Zm14.291-9.441a3.001 3.001 0 0 0-1.811-2.05C863.195 4.985 856.375 5 856 5s-7.195-.015-11.48 1.64a3 3 0 0 0-1.811 2.05C842.385 9.938 842 12.217 842 16c0 3.782.385 6.063.709 7.31a2.993 2.993 0 0 0 1.811 2.051C848.625 26.945 855.05 27 855.917 27h.166c.867 0 7.296-.055 11.397-1.639a3 3 0 0 0 1.811-2.051c.324-1.25.709-3.527.709-7.31 0-3.783-.385-6.063-.709-7.31Zm-1.936 14.125a.995.995 0 0 1-.596.686c-3.956 1.528-10.685 1.5-10.765 1.5-.08 0-6.796.023-10.75-1.5a1.001 1.001 0 0 1-.596-.686C844.35 21.674 844 19.571 844 16s.35-5.674.645-6.809a.993.993 0 0 1 .596-.691c3.957-1.522 10.684-1.5 10.765-1.5.082 0 6.796-.022 10.75 1.5a1 1 0 0 1 .597.686c.297 1.14.647 3.243.647 6.814s-.35 5.674-.645 6.809v.006Z"/>
    </g>
    <g fill="#2D746D" clip-path="url(#u)" id="Toolbox">
        <path opacity=".2" d="M910 14.789V25a.998.998 0 0 1-1 1h-22a1 1 0 0 1-1-1V14.79A23.894 23.894 0 0 0 898 18a23.886 23.886 0 0 0 12-3.211Z"/>
        <path d="M895 14a.998.998 0 0 1 1-1h4a1 1 0 1 1 0 2h-4a1 1 0 0 1-1-1Zm16-5v16a2 2 0 0 1-2 2h-22a2 2 0 0 1-2-2V9a2 2 0 0 1 2-2h5V6a2.999 2.999 0 0 1 3-3h6a2.998 2.998 0 0 1 3 3v1h5a2 2 0 0 1 2 2Zm-17-2h8V6a.998.998 0 0 0-1-1h-6a1 1 0 0 0-1 1v1Zm-7 2v5.203A23.01 23.01 0 0 0 898 17c3.843 0 7.625-.962 11-2.799V9h-22Zm22 16v-8.546a25.03 25.03 0 0 1-22 .001V25h22Z"/>
    </g>
    <g fill="#2D746D" clip-path="url(#v)" id="Marker">
        <path opacity=".2" d="M940 3a10 10 0 0 0-10 10c0 9 10 16 10 16s10-7 10-16a10.002 10.002 0 0 0-10-10Zm0 14a4 4 0 1 1 0-8 4 4 0 0 1 0 8Z"/>
        <path d="M949 28h-6.183a33.325 33.325 0 0 0 2.933-2.969C949.181 21.085 951 16.925 951 13a11 11 0 0 0-22 0c0 3.925 1.814 8.085 5.25 12.031A33.45 33.45 0 0 0 937.182 28H931a1 1 0 1 0 0 2h18a1 1 0 1 0 0-2Zm-18-15a9 9 0 1 1 18 0c0 7.154-6.934 13.125-9 14.75-2.066-1.625-9-7.596-9-14.75Zm14 0a4.996 4.996 0 0 0-3.087-4.62 4.997 4.997 0 0 0-6.817 3.644 4.995 4.995 0 0 0 2.126 5.133A4.999 4.999 0 0 0 945 13Zm-8 0a2.998 2.998 0 0 1 1.852-2.772A2.999 2.999 0 1 1 937 13Z"/>
    </g>
    <g fill="#2D746D" clip-path="url(#w)" id="House">
        <path opacity=".2" d="M993 14.443V27h-8v-7a.998.998 0 0 0-1-1h-4a.999.999 0 0 0-1 1v7h-8V14.443a.993.993 0 0 1 .327-.74l10.001-9.443a1 1 0 0 1 1.346 0l10 9.443a.995.995 0 0 1 .326.74Z"/>
        <path d="M996 26h-2V14.444a1.992 1.992 0 0 0-.646-1.473l-10-9.435a2 2 0 0 0-2.705-.014l-.014.014-9.989 9.435a1.992 1.992 0 0 0-.646 1.473V26h-2a.999.999 0 1 0 0 2h28a1 1 0 1 0 0-2Zm-24-11.556.014-.013L982 5.001l9.987 9.428.014.012v11.56H986v-6a2 2 0 0 0-2-2h-4a2 2 0 0 0-2 2v6h-6V14.443ZM984 26h-4v-6h4v6Z"/>
    </g>
    <g fill="#2D746D" clip-path="url(#x)" id="Calendar">
        <path opacity=".2" d="M1035 6v5h-22V6c0-.265.11-.52.29-.707.19-.188.44-.293.71-.293h20c.27 0 .52.105.71.293.18.187.29.442.29.707Z"/>
        <path d="M1034 4h-3V3c0-.265-.11-.52-.29-.707A1.003 1.003 0 0 0 1030 2c-.27 0-.52.105-.71.293A1.03 1.03 0 0 0 1029 3v1h-10V3c0-.265-.11-.52-.29-.707A1.003 1.003 0 0 0 1018 2c-.27 0-.52.105-.71.293A1.03 1.03 0 0 0 1017 3v1h-3c-.53 0-1.04.21-1.41.586-.38.375-.59.884-.59 1.414v20c0 .53.21 1.04.59 1.414.37.375.88.586 1.41.586h20c.53 0 1.04-.21 1.41-.586.38-.375.59-.884.59-1.414V6c0-.53-.21-1.04-.59-1.414A1.982 1.982 0 0 0 1034 4Zm-17 2v1c0 .265.11.52.29.707a1.003 1.003 0 0 0 1.42 0c.18-.187.29-.442.29-.707V6h10v1c0 .265.11.52.29.707a1.003 1.003 0 0 0 1.42 0c.18-.187.29-.442.29-.707V6h3v4h-20V6h3Zm17 20h-20V12h20v14Zm-4.79-10.707c.09.092.16.203.21.324.05.121.08.252.08.383s-.03.262-.08.383-.12.232-.21.325l-6 6c-.1.093-.21.166-.33.217a.986.986 0 0 1-.76 0c-.12-.05-.23-.125-.33-.218l-3-3a.988.988 0 0 1-.29-.707c0-.265.1-.52.29-.707a1.003 1.003 0 0 1 1.42 0l2.29 2.293 5.29-5.293c.1-.093.21-.167.33-.218a.986.986 0 0 1 .76 0c.12.05.23.125.33.218Z"/>
    </g>
    <g fill="#2D746D" clip-path="url(#y)" id="Phone">
        <path opacity=".2" d="M1077.99 21.76A6.042 6.042 0 0 1 1072 27a17 17 0 0 1-17-17c0-1.464.53-2.88 1.49-3.981a6.069 6.069 0 0 1 3.75-2.012c.21-.025.43.02.62.128s.33.274.42.472l2.64 5.9c.06.152.09.317.08.482-.02.164-.07.322-.16.46l-2.67 3.176a.954.954 0 0 0-.07.976c1.03 2.117 3.22 4.278 5.34 5.301a.988.988 0 0 0 .98-.074l3.13-2.662a.984.984 0 0 1 .94-.086l5.9 2.641c.2.085.37.232.47.419.11.187.16.405.13.62Z"/>
        <path d="M1069 12V7c0-.265.11-.52.29-.707a1.003 1.003 0 0 1 1.42 0c.18.187.29.442.29.707v2.586l4.29-4.293a1.002 1.002 0 0 1 1.42 0c.19.187.29.442.29.707 0 .265-.1.52-.29.708L1072.42 11h2.58c.27 0 .52.105.71.293.18.188.29.442.29.707 0 .265-.11.52-.29.707-.19.188-.44.293-.71.293h-5c-.27 0-.52-.105-.71-.293A1.03 1.03 0 0 1 1069 12Zm9.99 9.885a7.058 7.058 0 0 1-2.35 4.374A7.006 7.006 0 0 1 1072 28c-9.92 0-18-8.075-18-18 0-1.708.62-3.36 1.74-4.645a7.04 7.04 0 0 1 4.38-2.339c.42-.052.86.035 1.23.25.38.214.67.543.84.939l2.64 5.894v.015c.13.303.19.634.16.963-.03.329-.14.646-.32.923a.496.496 0 0 1-.07.096l-2.6 3.085c.94 1.903 2.93 3.875 4.85 4.814l3.05-2.589c.03-.025.06-.048.09-.07a2.008 2.008 0 0 1 1.9-.175l.01.008 5.89 2.639c.4.17.73.465.94.84.22.374.31.808.26 1.237Zm-1.99-.25h-.01l-5.88-2.631-3.04 2.588c-.03.026-.06.05-.09.07-.29.193-.63.307-.97.332-.35.025-.69-.04-1-.189-2.34-1.131-4.68-3.447-5.81-5.764-.15-.31-.22-.654-.2-.997.03-.344.14-.677.32-.965a.521.521 0 0 1 .08-.097l2.6-3.088-2.62-5.875c-.01-.005-.01-.01 0-.015a5.04 5.04 0 0 0-3.14 1.672c-.8.92-1.24 2.102-1.24 3.324 0 4.242 1.69 8.309 4.69 11.309 3 3 7.07 4.686 11.31 4.691a5.03 5.03 0 0 0 5-4.366v.001Z"/>
    </g>
    <g fill="#2D746D" clip-path="url(#z)" id="Email">
        <path opacity=".2" d="m1120 12-9.82 7h-4.36l-9.82-7 12-8 12 8Z"/>
        <path d="m1120.56 11.167-12-8a1.024 1.024 0 0 0-1.12 0l-11.99 8a1.002 1.002 0 0 0-.45.833v13c0 .53.21 1.04.59 1.414.37.375.88.586 1.41.586h22c.53 0 1.04-.21 1.41-.586.38-.375.59-.884.59-1.414V12a.976.976 0 0 0-.12-.472c-.08-.145-.19-.27-.32-.36ZM1108 5.201l10.24 6.826-8.38 5.973h-3.72l-8.38-5.973L1108 5.201ZM1097 25V13.94l8.24 5.875c.17.121.37.186.58.186h4.36c.21 0 .41-.065.58-.186l8.24-5.875V25h-22Z"/>
    </g>
    <defs>
        <clipPath id="a">
            <path fill="#fff" transform="translate(42)" d="M0 0h32v32H0z"/>
        </clipPath>
        <clipPath id="b">
            <path fill="#fff" transform="translate(84)" d="M0 0h32v32H0z"/>
        </clipPath>
        <clipPath id="c">
            <path fill="#fff" transform="translate(126)" d="M0 0h32v32H0z"/>
        </clipPath>
        <clipPath id="d">
            <path fill="#fff" transform="translate(168)" d="M0 0h32v32H0z"/>
        </clipPath>
        <clipPath id="e">
            <path fill="#fff" transform="translate(210)" d="M0 0h32v32H0z"/>
        </clipPath>
        <clipPath id="f">
            <path fill="#fff" transform="translate(252)" d="M0 0h32v32H0z"/>
        </clipPath>
        <clipPath id="g">
            <path fill="#fff" transform="translate(294)" d="M0 0h32v32H0z"/>
        </clipPath>
        <clipPath id="h">
            <path fill="#fff" transform="translate(336)" d="M0 0h32v32H0z"/>
        </clipPath>
        <clipPath id="i">
            <path fill="#fff" transform="translate(378)" d="M0 0h32v32H0z"/>
        </clipPath>
        <clipPath id="j">
            <path fill="#fff" transform="translate(420)" d="M0 0h32v32H0z"/>
        </clipPath>
        <clipPath id="k">
            <path fill="#fff" transform="translate(462)" d="M0 0h32v32H0z"/>
        </clipPath>
        <clipPath id="l">
            <path fill="#fff" transform="translate(504)" d="M0 0h32v32H0z"/>
        </clipPath>
        <clipPath id="m">
            <path fill="#fff" transform="translate(546)" d="M0 0h32v32H0z"/>
        </clipPath>
        <clipPath id="n">
            <path fill="#fff" transform="translate(588)" d="M0 0h32v32H0z"/>
        </clipPath>
        <clipPath id="o">
            <path fill="#fff" transform="translate(630)" d="M0 0h32v32H0z"/>
        </clipPath>
        <clipPath id="p">
            <path fill="#fff" transform="translate(672)" d="M0 0h32v32H0z"/>
        </clipPath>
        <clipPath id="q">
            <path fill="#fff" transform="translate(714)" d="M0 0h32v32H0z"/>
        </clipPath>
        <clipPath id="r">
            <path fill="#fff" transform="translate(756)" d="M0 0h32v32H0z"/>
        </clipPath>
        <clipPath id="s">
            <path fill="#fff" transform="translate(798)" d="M0 0h32v32H0z"/>
        </clipPath>
        <clipPath id="t">
            <path fill="#fff" transform="translate(840)" d="M0 0h32v32H0z"/>
        </clipPath>
        <clipPath id="u">
            <path fill="#fff" transform="translate(882)" d="M0 0h32v32H0z"/>
        </clipPath>
        <clipPath id="v">
            <path fill="#fff" transform="translate(924)" d="M0 0h32v32H0z"/>
        </clipPath>
        <clipPath id="w">
            <path fill="#fff" transform="translate(966)" d="M0 0h32v32H0z"/>
        </clipPath>
        <clipPath id="x">
            <path fill="#fff" transform="translate(1008)" d="M0 0h32v32H0z"/>
        </clipPath>
        <clipPath id="y">
            <path fill="#fff" transform="translate(1050)" d="M0 0h32v32H0z"/>
        </clipPath>
        <clipPath id="z">
            <path fill="#fff" transform="translate(1092)" d="M0 0h32v32H0z"/>
        </clipPath>
    </defs>
</svg>
